<svg width="100%" viewBox="0 0 680 340" xmlns="http://www.w3.org/2000/svg" font-family="sans-serif">
<defs>
  <marker id="arrow" viewBox="0 0 10 10" refX="8" refY="5" markerWidth="6" markerHeight="6" orient="auto-start-reverse">
    <path d="M2 1L8 5L2 9" fill="none" stroke="context-stroke" stroke-width="1.5" stroke-linecap="round" stroke-linejoin="round"/>
  </marker>
  <style>
    text { font-family: sans-serif; }
    .th { font-size:14px; font-weight:600; fill:#1a1a18; }
    .ts { font-size:12px; font-weight:400; fill:#2c2c2a; }
  </style>
</defs>
<circle cx="100" cy="160" r="38" fill="#3B6D11" opacity="0.85"/>
<text class="th" x="100" y="165" text-anchor="middle" fill="#C0DD97">A</text>
<circle cx="260" cy="80" r="30" fill="#3B6D11" opacity="0.8"/>
<text class="th" x="260" y="85" text-anchor="middle" fill="#C0DD97">B</text>
<circle cx="260" cy="240" r="25" fill="#3B6D11" opacity="0.75"/>
<text class="th" x="260" y="245" text-anchor="middle" fill="#C0DD97">C</text>
<circle cx="420" cy="160" r="35" fill="#3B6D11" opacity="0.85"/>
<text class="th" x="420" y="165" text-anchor="middle" fill="#C0DD97">D</text>
<circle cx="560" cy="90" r="22" fill="#27500A" opacity="0.7"/>
<text class="th" x="560" y="95" text-anchor="middle" fill="#C0DD97">E</text>
<circle cx="560" cy="240" r="28" fill="#3B6D11" opacity="0.8"/>
<text class="th" x="560" y="245" text-anchor="middle" fill="#C0DD97">F</text>
<line x1="136" y1="130" x2="232" y2="94" stroke="#0F6E56" stroke-width="3.5" opacity="0.8"/>
<line x1="130" y1="190" x2="236" y2="232" stroke="#0F6E56" stroke-width="2" opacity="0.6"/>
<line x1="290" y1="88" x2="386" y2="142" stroke="#0F6E56" stroke-width="3" opacity="0.8"/>
<line x1="284" y1="232" x2="388" y2="178" stroke="#0F6E56" stroke-width="2" opacity="0.6"/>
<line x1="455" y1="138" x2="540" y2="104" stroke="#888780" stroke-width="1" stroke-dasharray="5,3" opacity="0.6"/>
<line x1="454" y1="178" x2="533" y2="224" stroke="#0F6E56" stroke-width="3" opacity="0.8"/>
<line x1="560" y1="112" x2="560" y2="212" stroke="#888780" stroke-width="1" stroke-dasharray="5,3" opacity="0.5"/>
<text class="ts" x="182" y="100" fill="#0F6E56">alta</text>
<text class="ts" x="174" y="218" fill="#888780">média</text>
<text class="ts" x="348" y="108" fill="#0F6E56">alta</text>
<text class="ts" x="596" y="170" fill="#888780">baixa</text>
<line x1="40" y1="295" x2="80" y2="295" stroke="#0F6E56" stroke-width="3"/>
<text class="ts" x="88" y="300">Conexão forte (baixa resistência)</text>
<line x1="300" y1="295" x2="340" y2="295" stroke="#888780" stroke-width="1" stroke-dasharray="5,3"/>
<text class="ts" x="348" y="300">Conexão fraca (alta resistência)</text>
<text class="ts" x="340" y="328" text-anchor="middle">Figura 6 — Paisagem como grafo: nós = fragmentos, arestas = conexões ponderadas por resistência da matriz</text>
</svg>
