<svg width="100%" viewBox="0 0 680 310" xmlns="http://www.w3.org/2000/svg" font-family="sans-serif">
<defs>
  <marker id="arrowp" viewBox="0 0 10 10" refX="8" refY="5" markerWidth="6" markerHeight="6" orient="auto-start-reverse">
    <path d="M2 1L8 5L2 9" fill="none" stroke="context-stroke" stroke-width="1.5" stroke-linecap="round" stroke-linejoin="round"/>
  </marker>
  <style>
    text { font-family: sans-serif; }
    .th { font-size:14px; font-weight:600; fill:#1a1a18; }
    .ts { font-size:12px; font-weight:400; fill:#2c2c2a; }
  </style>
</defs>
<line x1="70" y1="240" x2="610" y2="240" stroke="#1a1a18" stroke-width="1.5" marker-end="url(#arrowp)"/>
<line x1="70" y1="240" x2="70" y2="30" stroke="#1a1a18" stroke-width="1.5" marker-end="url(#arrowp)"/>
<text class="ts" x="340" y="270" text-anchor="middle">Cobertura de habitat (%)</text>
<text class="ts" x="25" y="140" text-anchor="middle" transform="rotate(-90 25 140)">Conectividade funcional</text>
<text class="ts" x="62" y="245" text-anchor="end">0%</text>
<text class="ts" x="610" y="255" text-anchor="end">100%</text>
<text class="ts" x="62" y="38" text-anchor="end">alta</text>
<path d="M80 230 Q150 228 240 222 Q290 218 310 215" fill="none" stroke="#A32D2D" stroke-width="2.5"/>
<path d="M310 215 Q330 190 345 150 Q355 115 368 80" fill="none" stroke="#A32D2D" stroke-width="2.5"/>
<path d="M368 80 Q400 55 450 48 Q510 42 600 40" fill="none" stroke="#0F6E56" stroke-width="2.5"/>
<rect x="300" y="30" width="80" height="215" fill="#FAEEDA" opacity="0.5"/>
<line x1="340" y1="30" x2="340" y2="240" stroke="#BA7517" stroke-width="1.5" stroke-dasharray="6,3"/>
<text class="th" x="340" y="22" text-anchor="middle" fill="#BA7517">~59%</text>
<text class="ts" x="340" y="258" text-anchor="middle" fill="#BA7517">limiar crítico</text>
<text class="ts" x="185" y="200" text-anchor="middle" fill="#A32D2D">paisagem</text>
<text class="ts" x="185" y="215" text-anchor="middle" fill="#A32D2D">fragmentada</text>
<text class="ts" x="490" y="62" text-anchor="middle" fill="#0F6E56">paisagem</text>
<text class="ts" x="490" y="77" text-anchor="middle" fill="#0F6E56">percolada</text>
<line x1="420" y1="140" x2="365" y2="118" stroke="#BA7517" stroke-width="1" marker-end="url(#arrowp)"/>
<text class="ts" x="430" y="136" fill="#BA7517">colapso abrupto</text>
<text class="ts" x="430" y="151" fill="#BA7517">da rede</text>
<text class="ts" x="340" y="292" text-anchor="middle">Figura 8 — Limiar de percolação: a conectividade não cai linearmente — colapso abrupto abaixo de ~59% de habitat</text>
</svg>
