<svg width="100%" viewBox="0 0 680 340" xmlns="http://www.w3.org/2000/svg" font-family="sans-serif">
<defs>
  <style>
    text { font-family: sans-serif; }
    .th { font-size:13px; font-weight:600; fill:#1a1a18; }
    .ts { font-size:11px; font-weight:400; fill:#2c2c2a; }
  </style>
</defs>

<!-- Cabeçalho SNUC -->
<rect x="180" y="8" width="320" height="32" rx="8" fill="#173404"/>
<text style="font-size:13px;font-weight:700;fill:white" x="340" y="30" text-anchor="middle">SNUC — Lei 9.985/2000</text>

<!-- Setas de divisão -->
<line x1="220" y1="40" x2="160" y2="68" stroke="#1a1a18" stroke-width="1.2"/>
<line x1="460" y1="40" x2="520" y2="68" stroke="#1a1a18" stroke-width="1.2"/>

<!-- Grupo 1: Proteção Integral -->
<rect x="20" y="68" width="295" height="34" rx="6" fill="#0C447C"/>
<text style="font-size:12px;font-weight:700;fill:white" x="168" y="90" text-anchor="middle">Proteção Integral (5 categorias)</text>
<text style="font-size:10px;fill:#B5D4F4" x="168" y="103" text-anchor="middle">uso indireto apenas · preservação total</text>

<!-- 5 categorias PI -->
<rect x="20"  y="112" width="55" height="52" rx="5" fill="#185FA5" opacity="0.82"/>
<text style="font-size:9px;font-weight:600;fill:white" x="48"  y="132" text-anchor="middle">Estação</text>
<text style="font-size:9px;fill:white"              x="48"  y="145" text-anchor="middle">Ecológica</text>
<text style="font-size:8px;fill:#B5D4F4"            x="48"  y="158" text-anchor="middle">ESEC</text>

<rect x="80"  y="112" width="55" height="52" rx="5" fill="#185FA5" opacity="0.82"/>
<text style="font-size:9px;font-weight:600;fill:white" x="108" y="132" text-anchor="middle">Reserva</text>
<text style="font-size:9px;fill:white"              x="108" y="145" text-anchor="middle">Biológica</text>
<text style="font-size:8px;fill:#B5D4F4"            x="108" y="158" text-anchor="middle">REBIO</text>

<rect x="140" y="112" width="55" height="52" rx="5" fill="#185FA5" opacity="0.88"/>
<text style="font-size:9px;font-weight:600;fill:white" x="168" y="132" text-anchor="middle">Parque</text>
<text style="font-size:9px;fill:white"              x="168" y="145" text-anchor="middle">Nacional</text>
<text style="font-size:8px;fill:#B5D4F4"            x="168" y="158" text-anchor="middle">PARNA</text>

<rect x="200" y="112" width="55" height="52" rx="5" fill="#185FA5" opacity="0.82"/>
<text style="font-size:9px;font-weight:600;fill:white" x="228" y="128" text-anchor="middle">Monumento</text>
<text style="font-size:9px;fill:white"              x="228" y="141" text-anchor="middle">Natural</text>
<text style="font-size:8px;fill:#B5D4F4"            x="228" y="158" text-anchor="middle">MONA</text>

<rect x="260" y="112" width="55" height="52" rx="5" fill="#185FA5" opacity="0.82"/>
<text style="font-size:9px;font-weight:600;fill:white" x="288" y="128" text-anchor="middle">Refúgio de</text>
<text style="font-size:9px;fill:white"              x="288" y="141" text-anchor="middle">Vida Silvestre</text>
<text style="font-size:8px;fill:#B5D4F4"            x="288" y="158" text-anchor="middle">RVS</text>

<!-- Grupo 2: Uso Sustentável -->
<rect x="365" y="68" width="295" height="34" rx="6" fill="#27500A" opacity="0.88"/>
<text style="font-size:12px;font-weight:700;fill:white" x="512" y="90" text-anchor="middle">Uso Sustentável (7 categorias)</text>
<text style="font-size:10px;fill:#97C459" x="512" y="103" text-anchor="middle">uso direto permitido · populações dentro</text>

<!-- 7 categorias US -->
<rect x="365" y="112" width="40" height="52" rx="5" fill="#27500A" opacity="0.82"/>
<text style="font-size:8px;font-weight:600;fill:white" x="385" y="128" text-anchor="middle">Área de</text>
<text style="font-size:8px;fill:white"              x="385" y="140" text-anchor="middle">Proteção</text>
<text style="font-size:8px;fill:white"              x="385" y="152" text-anchor="middle">Ambiental</text>
<text style="font-size:8px;fill:#97C459"            x="385" y="162" text-anchor="middle">APA</text>

<rect x="410" y="112" width="40" height="52" rx="5" fill="#27500A" opacity="0.82"/>
<text style="font-size:8px;font-weight:600;fill:white" x="430" y="128" text-anchor="middle">ARIE</text>
<text style="font-size:8px;fill:white"              x="430" y="140" text-anchor="middle">Rel. Interesse</text>
<text style="font-size:8px;fill:white"              x="430" y="152" text-anchor="middle">Ecológico</text>

<rect x="455" y="112" width="40" height="52" rx="5" fill="#27500A" opacity="0.82"/>
<text style="font-size:8px;font-weight:600;fill:white" x="475" y="132" text-anchor="middle">Floresta</text>
<text style="font-size:8px;fill:white"              x="475" y="144" text-anchor="middle">Nacional</text>
<text style="font-size:8px;fill:#97C459"            x="475" y="158" text-anchor="middle">FLONA</text>

<rect x="500" y="112" width="40" height="52" rx="5" fill="#27500A" opacity="0.88"/>
<text style="font-size:8px;font-weight:600;fill:white" x="520" y="128" text-anchor="middle">Reserva</text>
<text style="font-size:8px;fill:white"              x="520" y="140" text-anchor="middle">Extrativista</text>
<text style="font-size:8px;fill:#97C459"            x="520" y="158" text-anchor="middle">RESEX</text>

<rect x="545" y="112" width="40" height="52" rx="5" fill="#27500A" opacity="0.82"/>
<text style="font-size:8px;font-weight:600;fill:white" x="565" y="128" text-anchor="middle">Reserva</text>
<text style="font-size:8px;fill:white"              x="565" y="140" text-anchor="middle">de Fauna</text>

<rect x="590" y="112" width="40" height="52" rx="5" fill="#27500A" opacity="0.82"/>
<text style="font-size:8px;font-weight:600;fill:white" x="610" y="126" text-anchor="middle">Reserva</text>
<text style="font-size:8px;fill:white"              x="610" y="138" text-anchor="middle">Desenv.</text>
<text style="font-size:8px;fill:white"              x="610" y="150" text-anchor="middle">Sustentável</text>
<text style="font-size:8px;fill:#97C459"            x="610" y="162" text-anchor="middle">RDS</text>

<rect x="635" y="112" width="40" height="52" rx="5" fill="#27500A" opacity="0.82"/>
<text style="font-size:8px;font-weight:600;fill:white" x="655" y="126" text-anchor="middle">RPPN</text>
<text style="font-size:8px;fill:white"              x="655" y="138" text-anchor="middle">Reserva</text>
<text style="font-size:8px;fill:white"              x="655" y="150" text-anchor="middle">Part. Pat.</text>
<text style="font-size:8px;fill:white"              x="655" y="162" text-anchor="middle">Natural</text>

<!-- Zona de Amortecimento e Corredores -->
<rect x="20" y="180" width="640" height="44" rx="6" fill="#EAF3DE" stroke="#639922" stroke-width="1"/>
<text style="font-size:11px;font-weight:600;fill:#173404" x="340" y="198" text-anchor="middle">Zona de Amortecimento (ZA) · Corredores Ecológicos</text>
<text class="ts" x="340" y="216" text-anchor="middle">A ZA envolve cada UC; corredores ligam UCs vizinhas — ambos previstos no SNUC como mecanismos de conectividade</text>

<!-- Números -->
<rect x="20" y="238" width="640" height="52" rx="6" fill="#F5E9C8" stroke="#BA7517" stroke-width="0.8"/>
<text style="font-size:11px;font-weight:600;fill:#633806" x="340" y="256" text-anchor="middle">Brasil em números (MMA 2024)</text>
<text class="ts" x="120" y="274" text-anchor="middle" fill="#0C447C">Proteção Integral</text>
<text style="font-size:13px;font-weight:700;fill:#0C447C" x="120" y="290" text-anchor="middle">~8%</text>
<text class="ts" x="340" y="274" text-anchor="middle" fill="#27500A">Uso Sustentável</text>
<text style="font-size:13px;font-weight:700;fill:#27500A" x="340" y="290" text-anchor="middle">~9%</text>
<text class="ts" x="560" y="274" text-anchor="middle" fill="#173404">Total protegido</text>
<text style="font-size:13px;font-weight:700;fill:#173404" x="560" y="290" text-anchor="middle">~17%</text>

<text class="ts" x="340" y="320" text-anchor="middle">Figura 1 — O SNUC (Lei 9.985/2000): dois grupos, 12 categorias e os mecanismos de conectividade entre UCs</text>
</svg>
