<svg width="100%" viewBox="0 0 680 460" xmlns="http://www.w3.org/2000/svg" font-family="sans-serif">
<defs>
  <marker id="arrow" viewBox="0 0 10 10" refX="8" refY="5" markerWidth="6" markerHeight="6" orient="auto-start-reverse">
    <path d="M2 1L8 5L2 9" fill="none" stroke="context-stroke" stroke-width="1.5" stroke-linecap="round" stroke-linejoin="round"/>
  </marker>
  <style>
    text { font-family: sans-serif; }
    .th { font-size:14px; font-weight:600; fill:#1a1a18; }
    .ts { font-size:12px; font-weight:400; fill:#2c2c2a; }
  </style>
</defs>

<text class="th" x="100" y="22" text-anchor="middle">a) Percolação</text>
<text class="th" x="340" y="22" text-anchor="middle">b) Corredores e stepping stones</text>
<text class="th" x="580" y="22" text-anchor="middle">c) Permeabilidade da matriz</text>

<line x1="225" y1="12" x2="225" y2="430" stroke="#c8c6be" stroke-width="0.5"/>
<line x1="458" y1="12" x2="458" y2="430" stroke="#c8c6be" stroke-width="0.5"/>

<!-- PAINEL A: acima do limiar -->
<text class="ts" x="105" y="45" text-anchor="middle">Acima do limiar (~59%)</text>
<g opacity="0.85">
  <rect x="35" y="54" width="18" height="18" rx="2" fill="#3B6D11"/>
  <rect x="56" y="54" width="18" height="18" rx="2" fill="#3B6D11"/>
  <rect x="77" y="54" width="18" height="18" rx="2" fill="#3B6D11"/>
  <rect x="98" y="54" width="18" height="18" rx="2" fill="#888780" opacity="0.3"/>
  <rect x="119" y="54" width="18" height="18" rx="2" fill="#3B6D11"/>
  <rect x="140" y="54" width="18" height="18" rx="2" fill="#3B6D11"/>
  <rect x="161" y="54" width="18" height="18" rx="2" fill="#3B6D11"/>
  <rect x="35" y="76" width="18" height="18" rx="2" fill="#3B6D11"/>
  <rect x="56" y="76" width="18" height="18" rx="2" fill="#888780" opacity="0.3"/>
  <rect x="77" y="76" width="18" height="18" rx="2" fill="#3B6D11"/>
  <rect x="98" y="76" width="18" height="18" rx="2" fill="#3B6D11"/>
  <rect x="119" y="76" width="18" height="18" rx="2" fill="#3B6D11"/>
  <rect x="140" y="76" width="18" height="18" rx="2" fill="#888780" opacity="0.3"/>
  <rect x="161" y="76" width="18" height="18" rx="2" fill="#3B6D11"/>
  <rect x="35" y="98" width="18" height="18" rx="2" fill="#3B6D11"/>
  <rect x="56" y="98" width="18" height="18" rx="2" fill="#3B6D11"/>
  <rect x="77" y="98" width="18" height="18" rx="2" fill="#888780" opacity="0.3"/>
  <rect x="98" y="98" width="18" height="18" rx="2" fill="#3B6D11"/>
  <rect x="119" y="98" width="18" height="18" rx="2" fill="#888780" opacity="0.3"/>
  <rect x="140" y="98" width="18" height="18" rx="2" fill="#3B6D11"/>
  <rect x="161" y="98" width="18" height="18" rx="2" fill="#3B6D11"/>
  <rect x="35" y="120" width="18" height="18" rx="2" fill="#888780" opacity="0.3"/>
  <rect x="56" y="120" width="18" height="18" rx="2" fill="#3B6D11"/>
  <rect x="77" y="120" width="18" height="18" rx="2" fill="#3B6D11"/>
  <rect x="98" y="120" width="18" height="18" rx="2" fill="#3B6D11"/>
  <rect x="119" y="120" width="18" height="18" rx="2" fill="#3B6D11"/>
  <rect x="140" y="120" width="18" height="18" rx="2" fill="#3B6D11"/>
  <rect x="161" y="120" width="18" height="18" rx="2" fill="#888780" opacity="0.3"/>
  <rect x="35" y="142" width="18" height="18" rx="2" fill="#3B6D11"/>
  <rect x="56" y="142" width="18" height="18" rx="2" fill="#3B6D11"/>
  <rect x="77" y="142" width="18" height="18" rx="2" fill="#3B6D11"/>
  <rect x="98" y="142" width="18" height="18" rx="2" fill="#888780" opacity="0.3"/>
  <rect x="119" y="142" width="18" height="18" rx="2" fill="#3B6D11"/>
  <rect x="140" y="142" width="18" height="18" rx="2" fill="#3B6D11"/>
  <rect x="161" y="142" width="18" height="18" rx="2" fill="#3B6D11"/>
</g>
<path d="M44 170 Q90 150 125 110 Q155 80 170 65" fill="none" stroke="#EF9F27" stroke-width="2" stroke-dasharray="5,3" marker-end="url(#arrow)"/>
<text class="ts" x="105" y="192" text-anchor="middle" fill="#639922">Rede contínua — rota existe</text>

<!-- Abaixo do limiar -->
<text class="ts" x="105" y="220" text-anchor="middle">Abaixo do limiar (&lt;30%)</text>
<g opacity="0.85">
  <rect x="35" y="228" width="18" height="18" rx="2" fill="#3B6D11"/>
  <rect x="98" y="228" width="18" height="18" rx="2" fill="#3B6D11"/>
  <rect x="161" y="240" width="18" height="18" rx="2" fill="#3B6D11"/>
  <rect x="56" y="260" width="18" height="18" rx="2" fill="#3B6D11"/>
  <rect x="140" y="270" width="18" height="18" rx="2" fill="#3B6D11"/>
  <rect x="77" y="290" width="18" height="18" rx="2" fill="#3B6D11"/>
  <rect x="35" y="300" width="18" height="18" rx="2" fill="#3B6D11"/>
  <rect x="161" y="298" width="18" height="18" rx="2" fill="#3B6D11"/>
</g>
<text font-size="24" font-family="sans-serif" x="96" y="290" text-anchor="middle" fill="#A32D2D">✕</text>
<text class="ts" x="105" y="338" text-anchor="middle" fill="#A32D2D">Rede fragmentada — sem rota</text>

<!-- PAINEL B -->
<rect x="242" y="50" width="75" height="100" rx="6" fill="#3B6D11" opacity="0.85"/>
<text font-size="12" font-family="sans-serif" fill="#C0DD97" x="280" y="105" text-anchor="middle">Frag. 1</text>
<rect x="395" y="50" width="75" height="100" rx="6" fill="#3B6D11" opacity="0.85"/>
<text font-size="12" font-family="sans-serif" fill="#C0DD97" x="433" y="105" text-anchor="middle">Frag. 2</text>
<rect x="317" y="88" width="78" height="24" rx="4" fill="#3B6D11" opacity="0.6"/>
<text class="ts" x="356" y="78" text-anchor="middle">corredor</text>
<path d="M320 100 L393 100" fill="none" stroke="#EF9F27" stroke-width="2" stroke-dasharray="5,3" marker-end="url(#arrow)"/>

<line x1="242" y1="180" x2="455" y2="180" stroke="#c8c6be" stroke-width="0.5" stroke-dasharray="4,3"/>
<text class="ts" x="349" y="175" text-anchor="middle">ou</text>

<rect x="242" y="200" width="70" height="90" rx="6" fill="#3B6D11" opacity="0.85"/>
<text font-size="12" font-family="sans-serif" fill="#C0DD97" x="277" y="250" text-anchor="middle">Frag. 1</text>
<rect x="400" y="200" width="50" height="90" rx="6" fill="#3B6D11" opacity="0.85"/>
<text font-size="12" font-family="sans-serif" fill="#C0DD97" x="425" y="250" text-anchor="middle">Frag. 2</text>
<rect x="326" y="222" width="24" height="24" rx="4" fill="#27500A" opacity="0.75"/>
<rect x="358" y="235" width="20" height="20" rx="4" fill="#27500A" opacity="0.75"/>
<rect x="386" y="220" width="18" height="22" rx="4" fill="#27500A" opacity="0.75"/>
<text class="ts" x="349" y="288" text-anchor="middle">stepping stones</text>
<path d="M314 250 L325 240 L350 248 L378 235 L398 248" fill="none" stroke="#EF9F27" stroke-width="2" stroke-dasharray="5,3" marker-end="url(#arrow)"/>

<!-- PAINEL C -->
<rect x="475" y="50" width="65" height="120" rx="6" fill="#3B6D11" opacity="0.85"/>
<text font-size="12" font-family="sans-serif" fill="#C0DD97" x="508" y="115" text-anchor="middle">Frag. A</text>
<rect x="612" y="50" width="55" height="120" rx="6" fill="#3B6D11" opacity="0.85"/>
<text font-size="12" font-family="sans-serif" fill="#C0DD97" x="640" y="115" text-anchor="middle">Frag. B</text>
<rect x="541" y="60" width="70" height="50" rx="0" fill="#C0DD97" opacity="0.4"/>
<text class="ts" x="576" y="81" text-anchor="middle" fill="#27500A">pasto</text>
<text class="ts" x="576" y="96" text-anchor="middle" fill="#27500A">R = baixa</text>
<path d="M542 88 Q576 75 610 88" fill="none" stroke="#0F6E56" stroke-width="2.5" marker-end="url(#arrow)"/>
<rect x="541" y="122" width="70" height="50" rx="0" fill="#BA7517" opacity="0.3"/>
<text class="ts" x="576" y="143" text-anchor="middle" fill="#633806">cana</text>
<text class="ts" x="576" y="158" text-anchor="middle" fill="#633806">R = alta</text>
<path d="M542 145 L570 145" fill="none" stroke="#A32D2D" stroke-width="2" stroke-dasharray="4,3" marker-end="url(#arrow)"/>
<text font-size="16" font-family="sans-serif" x="596" y="152" text-anchor="middle" fill="#A32D2D">✕</text>
<text class="ts" x="485" y="210">R = resistência ao movimento</text>
<text class="ts" x="576" y="235" text-anchor="middle">mesma conectividade estrutural</text>
<text class="ts" x="576" y="252" text-anchor="middle">→ conectividade funcional diferente</text>

<!-- Legenda -->
<rect x="240" y="365" width="14" height="14" rx="2" fill="#3B6D11"/>
<text class="ts" x="260" y="376">Habitat</text>
<rect x="315" y="365" width="14" height="14" rx="2" fill="#888780" opacity="0.4"/>
<text class="ts" x="335" y="376">Matriz</text>
<line x1="383" y1="372" x2="408" y2="372" stroke="#EF9F27" stroke-width="2" stroke-dasharray="5,3" marker-end="url(#arrow)"/>
<text class="ts" x="415" y="376">Trajetória possível</text>
<line x1="515" y1="372" x2="535" y2="372" stroke="#A32D2D" stroke-width="2" stroke-dasharray="4,3" marker-end="url(#arrow)"/>
<text class="ts" x="540" y="376">Bloqueada</text>

<text class="ts" x="340" y="420" text-anchor="middle">Figura 2 — Os três componentes da conectividade ecológica funcional</text>
</svg>
