<svg width="100%" viewBox="0 0 680 300" xmlns="http://www.w3.org/2000/svg" font-family="sans-serif">
<defs>
  <marker id="arrowb" viewBox="0 0 10 10" refX="8" refY="5" markerWidth="5" markerHeight="5" orient="auto-start-reverse">
    <path d="M2 1L8 5L2 9" fill="none" stroke="#1a1a18" stroke-width="1.5" stroke-linecap="round" stroke-linejoin="round"/>
  </marker>
  <style>
    text { font-family: sans-serif; }
    .th { font-size:14px; font-weight:600; fill:#1a1a18; }
    .ts { font-size:12px; font-weight:400; fill:#2c2c2a; }
  </style>
</defs>
<rect x="40" y="40" width="240" height="200" rx="8" fill="#3B6D11" opacity="0.85"/>
<rect x="40" y="40" width="240" height="200" rx="8" fill="none" stroke="#97C459" stroke-width="28" opacity="0.6"/>
<rect x="68" y="68" width="184" height="144" rx="4" fill="#173404" opacity="0.5"/>
<text class="th" x="160" y="135" text-anchor="middle" fill="#C0DD97">Interior</text>
<text class="ts" x="160" y="152" text-anchor="middle" fill="#C0DD97">(área-núcleo)</text>
<text class="ts" x="56" y="78" fill="#2c2c2a">zona de</text>
<text class="ts" x="56" y="93" fill="#2c2c2a">borda</text>
<rect x="360" y="80" width="100" height="80" rx="6" fill="#3B6D11" opacity="0.85"/>
<rect x="360" y="80" width="100" height="80" rx="6" fill="none" stroke="#97C459" stroke-width="28" opacity="0.6"/>
<text class="ts" x="410" y="124" text-anchor="middle" fill="#C0DD97">só borda</text>
<text class="ts" x="410" y="140" text-anchor="middle" fill="#C0DD97">sem núcleo</text>
<line x1="310" y1="140" x2="355" y2="140" stroke="#1a1a18" stroke-width="1.2" stroke-dasharray="4,3" marker-end="url(#arrowb)"/>
<text class="ts" x="330" y="133" text-anchor="middle">vs</text>
<rect x="490" y="100" width="20" height="20" rx="2" fill="#3B6D11"/>
<text class="ts" x="518" y="115">Floresta</text>
<rect x="490" y="132" width="20" height="20" rx="2" fill="#97C459" opacity="0.7"/>
<text class="ts" x="518" y="147">Zona de borda</text>
<rect x="490" y="164" width="20" height="20" rx="2" fill="#173404" opacity="0.8"/>
<text class="ts" x="518" y="179">Interior / núcleo</text>
<text class="ts" x="340" y="272" text-anchor="middle">Figura 7 — Efeito de borda: fragmentos pequenos perdem área-núcleo; especialistas de interior são os mais afetados</text>
</svg>
