<svg width="100%" viewBox="0 0 680 380" xmlns="http://www.w3.org/2000/svg" font-family="sans-serif">
<defs>
  <marker id="arrow" viewBox="0 0 10 10" refX="8" refY="5" markerWidth="6" markerHeight="6" orient="auto-start-reverse">
    <path d="M2 1L8 5L2 9" fill="none" stroke="context-stroke" stroke-width="1.5" stroke-linecap="round" stroke-linejoin="round"/>
  </marker>
  <style>
    text { font-family: sans-serif; }
    .th { font-size:14px; font-weight:600; fill:#1a1a18; }
    .ts { font-size:12px; font-weight:400; fill:#2c2c2a; }
  </style>
</defs>

<!-- Painel esquerdo: alta conectividade -->
<rect x="20" y="20" width="300" height="320" rx="10" fill="none" stroke="#c8c6be" stroke-width="1"/>
<text class="th" x="170" y="48" text-anchor="middle">Alta conectividade</text>

<rect x="55" y="68" width="100" height="80" rx="5" fill="#3B6D11" opacity="0.85"/>
<text font-size="12" font-family="sans-serif" font-weight="400" fill="#C0DD97" x="105" y="113" text-anchor="middle">Frag. A</text>

<rect x="155" y="95" width="55" height="26" rx="3" fill="#3B6D11" opacity="0.65"/>

<rect x="210" y="68" width="95" height="80" rx="5" fill="#3B6D11" opacity="0.85"/>
<text font-size="12" font-family="sans-serif" font-weight="400" fill="#C0DD97" x="258" y="113" text-anchor="middle">Frag. B</text>

<rect x="100" y="188" width="32" height="60" rx="3" fill="#3B6D11" opacity="0.65"/>
<rect x="55" y="248" width="90" height="70" rx="5" fill="#3B6D11" opacity="0.85"/>
<text font-size="12" font-family="sans-serif" font-weight="400" fill="#C0DD97" x="100" y="287" text-anchor="middle">Frag. C</text>

<rect x="210" y="188" width="60" height="50" rx="5" fill="#3B6D11" opacity="0.7"/>
<text font-size="12" font-family="sans-serif" font-weight="400" fill="#C0DD97" x="240" y="218" text-anchor="middle">D</text>

<line x1="155" y1="108" x2="212" y2="108" stroke="#639922" stroke-width="1.5" stroke-dasharray="3,3"/>

<rect x="55" y="330" width="12" height="12" rx="2" fill="#3B6D11"/>
<text class="ts" x="73" y="341">Habitat</text>
<rect x="145" y="330" width="12" height="8" rx="1" fill="#3B6D11" opacity="0.6"/>
<text class="ts" x="163" y="341">Corredor</text>

<!-- Painel direito: baixa conectividade -->
<rect x="360" y="20" width="300" height="320" rx="10" fill="none" stroke="#c8c6be" stroke-width="1"/>
<text class="th" x="510" y="48" text-anchor="middle">Baixa conectividade</text>

<rect x="390" y="70" width="95" height="75" rx="5" fill="#3B6D11" opacity="0.85"/>
<text font-size="12" font-family="sans-serif" font-weight="400" fill="#C0DD97" x="438" y="112" text-anchor="middle">Frag. A</text>

<rect x="550" y="80" width="85" height="65" rx="5" fill="#3B6D11" opacity="0.85"/>
<text font-size="12" font-family="sans-serif" font-weight="400" fill="#C0DD97" x="593" y="117" text-anchor="middle">Frag. B</text>

<rect x="395" y="220" width="75" height="65" rx="5" fill="#3B6D11" opacity="0.85"/>
<text font-size="12" font-family="sans-serif" font-weight="400" fill="#C0DD97" x="433" y="257" text-anchor="middle">Frag. C</text>

<rect x="545" y="225" width="80" height="60" rx="5" fill="#3B6D11" opacity="0.85"/>
<text font-size="12" font-family="sans-serif" font-weight="400" fill="#C0DD97" x="585" y="260" text-anchor="middle">Frag. D</text>

<line x1="487" y1="115" x2="548" y2="115" stroke="#888780" stroke-width="1" stroke-dasharray="4,3" marker-start="url(#arrow)" marker-end="url(#arrow)"/>
<text class="ts" x="518" y="108" text-anchor="middle">~600 m</text>

<line x1="435" y1="147" x2="435" y2="218" stroke="#888780" stroke-width="1" stroke-dasharray="4,3" marker-start="url(#arrow)" marker-end="url(#arrow)"/>
<text class="ts" x="395" y="187" text-anchor="middle">~800 m</text>

<line x1="478" y1="255" x2="543" y2="255" stroke="#888780" stroke-width="1" stroke-dasharray="4,3" marker-start="url(#arrow)" marker-end="url(#arrow)"/>
<text class="ts" x="511" y="248" text-anchor="middle">~500 m</text>

<text class="ts" x="390" y="330">Matriz: pastagem/agricultura</text>

<text class="ts" x="340" y="372" text-anchor="middle">Figura 1 — Conectividade física: continuidade espacial independe de qualquer processo ecológico</text>
</svg>
