<svg width="100%" viewBox="0 0 680 300" xmlns="http://www.w3.org/2000/svg" font-family="sans-serif">
<defs>
  <marker id="arrowr" viewBox="0 0 10 10" refX="8" refY="5" markerWidth="6" markerHeight="6" orient="auto-start-reverse">
    <path d="M2 1L8 5L2 9" fill="none" stroke="context-stroke" stroke-width="1.5" stroke-linecap="round" stroke-linejoin="round"/>
  </marker>
  <style>
    text { font-family: sans-serif; }
    .th { font-size:14px; font-weight:600; fill:#1a1a18; }
    .ts { font-size:12px; font-weight:400; fill:#2c2c2a; }
  </style>
</defs>
<text class="th" x="160" y="25" text-anchor="middle">Matriz permeável</text>
<rect x="30" y="38" width="70" height="210" rx="6" fill="#3B6D11" opacity="0.85"/>
<text class="ts" x="65" y="145" text-anchor="middle" fill="#C0DD97">Hab. A</text>
<rect x="102" y="68" width="116" height="150" rx="0" fill="#C0DD97" opacity="0.5"/>
<text class="ts" x="160" y="145" text-anchor="middle" fill="#27500A">capoeira</text>
<text class="ts" x="160" y="160" text-anchor="middle" fill="#27500A">R = 2</text>
<rect x="220" y="38" width="70" height="210" rx="6" fill="#3B6D11" opacity="0.85"/>
<text class="ts" x="255" y="145" text-anchor="middle" fill="#C0DD97">Hab. B</text>
<path d="M102 143 Q160 125 218 143" fill="none" stroke="#EF9F27" stroke-width="3" stroke-dasharray="6,3" marker-end="url(#arrowr)"/>
<text class="ts" x="160" y="115" text-anchor="middle" fill="#EF9F27">rota direta</text>
<text class="th" x="400" y="25" text-anchor="middle">Matriz moderada</text>
<rect x="310" y="38" width="60" height="210" rx="6" fill="#3B6D11" opacity="0.85"/>
<text class="ts" x="340" y="145" text-anchor="middle" fill="#C0DD97">Hab. A</text>
<rect x="372" y="68" width="106" height="150" rx="0" fill="#F5E9C8" opacity="0.7"/>
<text class="ts" x="425" y="145" text-anchor="middle" fill="#633806">pastagem</text>
<text class="ts" x="425" y="160" text-anchor="middle" fill="#633806">R = 10</text>
<rect x="480" y="38" width="60" height="210" rx="6" fill="#3B6D11" opacity="0.85"/>
<text class="ts" x="510" y="145" text-anchor="middle" fill="#C0DD97">Hab. B</text>
<path d="M372 100 Q385 78 425 75 Q465 78 478 100" fill="none" stroke="#EF9F27" stroke-width="2" stroke-dasharray="5,3" marker-end="url(#arrowr)"/>
<text class="ts" x="425" y="68" text-anchor="middle" fill="#EF9F27">rota desviada</text>
<text class="th" x="620" y="25" text-anchor="middle">Barreira total</text>
<rect x="558" y="38" width="50" height="210" rx="6" fill="#3B6D11" opacity="0.85"/>
<text class="ts" x="583" y="145" text-anchor="middle" fill="#C0DD97">Hab. A</text>
<rect x="610" y="38" width="26" height="210" fill="#444441" opacity="0.9"/>
<line x1="623" y1="38" x2="623" y2="248" stroke="#F8F0D0" stroke-width="2" stroke-dasharray="12,8"/>
<text class="ts" x="636" y="100" fill="#2c2c2a">R=∞</text>
<rect x="638" y="38" width="24" height="210" rx="6" fill="#3B6D11" opacity="0.85"/>
<text class="ts" x="650" y="145" text-anchor="middle" fill="#C0DD97">Hab. B</text>
<text font-size="28" font-family="sans-serif" x="623" y="158" text-anchor="middle" fill="#A32D2D">✕</text>
<text class="ts" x="340" y="274" text-anchor="middle">Figura 9 — Valores de resistência (R) definem o custo do movimento — base dos modelos de circuito (Circuitscape)</text>
</svg>
